<svg width="35" height="35" viewBox="0 0 35 35" fill="none" xmlns="http://www.w3.org/2000/svg">
<path d="M25.3942 8.85417C23.2304 6.69792 20.3454 5.5 17.3001 5.5C10.9691 5.5 5.84015 10.6111 5.84015 16.9201C5.84015 18.9167 6.40112 20.9132 7.3628 22.5903L5.76001 28.5L11.8506 26.9028C13.5335 27.7812 15.3767 28.2604 17.3001 28.2604C23.6311 28.2604 28.76 23.1493 28.76 16.8403C28.6799 13.8854 27.5579 11.0104 25.3942 8.85417ZM22.8297 20.9931C22.5893 21.6319 21.4673 22.2708 20.9063 22.3507C20.4255 22.4306 19.7844 22.4306 19.1433 22.2708C18.7426 22.1111 18.1816 21.9514 17.5405 21.6319C14.6555 20.434 12.8123 17.559 12.652 17.3194C12.4917 17.1597 11.4499 15.8021 11.4499 14.3646C11.4499 12.9271 12.1712 12.2882 12.4116 11.9687C12.652 11.6493 12.9726 11.6493 13.213 11.6493C13.3732 11.6493 13.6137 11.6493 13.7739 11.6493C13.9342 11.6493 14.1746 11.5694 14.4151 12.1285C14.6555 12.6875 15.2165 14.125 15.2966 14.2049C15.3767 14.3646 15.3767 14.5243 15.2966 14.684C15.2165 14.8438 15.1363 15.0035 14.976 15.1632C14.8158 15.3229 14.6555 15.5625 14.5753 15.6424C14.4151 15.8021 14.2548 15.9618 14.4151 16.2014C14.5753 16.5208 15.1363 17.3993 16.0178 18.1979C17.1398 19.1562 18.0213 19.4757 18.3419 19.6354C18.6624 19.7951 18.8227 19.7153 18.983 19.5556C19.1433 19.3958 19.7043 18.7569 19.8645 18.4375C20.0248 18.1181 20.2652 18.1979 20.5057 18.2778C20.7461 18.3576 22.1886 19.0764 22.429 19.2361C22.7496 19.3958 22.9098 19.4757 22.99 19.5556C23.0701 19.7951 23.0701 20.3542 22.8297 20.9931Z" fill="url(#paint0_linear_5_628)"/>
<defs>
<linearGradient id="paint0_linear_5_628" x1="17.26" y1="5.5" x2="17.26" y2="28.5" gradientUnits="userSpaceOnUse">
<stop stop-color="#FFED1F"/>
<stop offset="1" stop-color="#FFB636"/>
</linearGradient>
</defs>
</svg>
